# Exported from Wings 3D 1.5.3
mtllib ship.mtl
o tetrahedron1
#41 vertices, 57 faces
v 0.0000000e+0 -4.3117949e-4 -1.22474487
v 0.0000000e+0 1.15426936 0.40824829
v -1.00000000 -0.57778145 0.40824829
v 1.00000000 -0.57778145 0.40824829
v -0.25800000 0.14852519 0.40824829
v 0.25800000 0.14852519 0.40824829
v 0.0000000e+0 -0.29834392 0.40824829
v -8.8687500e-2 0.68282678 0.40824829
v 8.8687500e-2 0.68282678 0.40824829
v -0.54737500 -0.41886579 0.40824829
v -0.63606250 -0.26525453 0.40824829
v 0.63606250 -0.26525453 0.40824829
v 0.54737500 -0.41886579 0.40824829
v -5.6437500e-2 0.87140381 0.40824829
v 5.6437500e-2 0.87140381 0.40824829
v -0.72681250 -0.48522498 0.40824829
v -0.78325000 -0.38747237 0.40824829
v 0.78325000 -0.38747237 0.40824829
v 0.72681250 -0.48522498 0.40824829
v -0.72175000 -0.30541646 0.40824829
v -0.56450000 -0.32634541 0.40824829
v -0.62500000 -0.47299237 0.40824829
v -0.78225000 -0.45206343 0.40824829
v -0.67337500 -0.38920442 0.40824829
v 0.72175000 -0.30541646 0.40824829
v 0.62500000 -0.47299237 0.40824829
v 0.56450000 -0.32634541 0.40824829
v 0.78225000 -0.45206343 0.40824829
v 0.67337500 -0.38920442 0.40824829
v 0.0000000e+0 0.65139727 0.40824829
v -9.6750000e-2 0.77711530 0.40824829
v 9.6750000e-2 0.77711530 0.40824829
v 0.0000000e+0 0.90283332 0.40824829
v 0.0000000e+0 0.77711530 0.40824829
v 0.0000000e+0 0.14762549 0.40824829
v 0.12822084 -7.4459516e-2 0.40824829
v -0.12822084 -7.4459516e-2 0.40824829
v 0.12951600 7.4344918e-2 0.40824829
v 0.0000000e+0 -0.14998337 0.40824829
v -0.12951600 7.4344918e-2 0.40824829
v 0.0000000e+0 -4.3117949e-4 0.40824829
vt 8.8645170e-3 0.52437731
vt 6.7666850e-2 0.57600646
vt 6.7938141e-2 0.55848348
vt 8.2977838e-2 0.54948705
vt 8.4351248e-2 0.59826749
vt 9.7474952e-2 0.57553657
vt 0.10759750 0.60916306
vt 0.11059866 0.55280565
vt 0.12701176 0.59258966
vt 0.13165762 0.56748971
vt 0.16020809 0.54969420
vt 0.16020809 7.1121212e-3
vt 0.16432716 8.1225442e-2
vt 0.16432716 0.47558088
vt 0.16487155 0.10884626
vt 0.16487155 0.44796006
vt 0.16728036 0.12990523
vt 0.16728036 0.42690109
vt 0.17264398 0.27840316
vt 0.21016247 0.72141779
vt 0.24501903 0.70129335
vt 0.24537039 0.66092404
vt 0.25390815 0.89194866
vt 0.25609543 0.86636903
vt 0.26484457 0.91752829
vt 0.28015556 0.60018621
vt 0.28015556 0.64043509
vt 0.28015556 0.68100727
vt 0.28015556 0.72117371
vt 0.28015556 0.85784248
vt 0.28015556 0.89194866
vt 0.28015556 0.92605483
vt 0.28015556 0.99426717
vt 0.29546654 0.91752829
vt 0.30421568 0.86636903
vt 0.30640296 0.89194866
vt 0.31494072 0.66092404
vt 0.31529209 0.70129335
vt 0.35014864 0.72141779
vt 0.42426768 0.97351863
vt 0.42865349 0.56748971
vt 0.43329935 0.59258966
vt 0.44971245 0.55280565
vt 0.45271361 0.60916306
vt 0.46283616 0.57553657
vt 0.47595986 0.59826749
vt 0.47733327 0.54948705
vt 0.49237297 0.55848348
vt 0.49264426 0.57600646
vt 0.49838100 0.96939956
vt 0.52600182 0.96885517
vt 0.52643850 0.37431427
vt 0.54706078 0.96644636
vt 0.55144659 0.52437731
vt 0.62291705 0.27840316
vt 0.69555872 0.51080967
vt 0.69555872 0.96108275
vt 0.84405665 0.96644636
vt 0.86511561 0.96885517
vt 0.89273643 0.96939956
vt 0.96684975 0.97351863
vt 0.97671158 0.37431427
vt 0.98207520 0.22581634
vt 0.98207520 0.52281220
vt 0.98448401 0.20475737
vt 0.98448401 0.54387117
vt 0.98502840 0.17713655
vt 0.98502840 0.57149199
vt 0.98914746 0.10302323
vt 0.98914746 0.64560531
vn -6.9493475e-17 4.9054217e-16 -1.00000000
vn 0.0000000e+0 0.21913984 0.97569346
vn -0.18978067 -0.10956992 0.97569346
vn 0.18978067 -0.10956992 0.97569346
vn -0.40372722 0.23309202 0.88468777
vn 0.40372722 0.23309202 0.88468777
vn 1.5436876e-18 -0.46618404 0.88468777
vn -0.72863825 7.9923495e-2 0.68021948
vn 0.72863825 7.9923495e-2 0.68021948
vn 0.29510335 -0.67098098 0.68021948
vn -0.43353490 0.59105748 0.68021948
vn 0.43353490 0.59105748 0.68021948
vn -0.29510335 -0.67098098 0.68021948
vn -0.73377919 0.22658028 0.64049159
vn 0.73377919 0.22658028 0.64049159
vn 0.17066532 -0.74876156 0.64049159
vn -0.56311387 0.52218128 0.64049159
vn 0.56311387 0.52218128 0.64049159
vn -0.17066532 -0.74876156 0.64049159
vn -0.46404894 0.57450742 0.67424017
vn 5.8581873e-18 -1.1809896e-16 1.00000000
vn 0.26551355 -0.68913188 0.67424017
vn -1.6232520e-16 -1.0092178e-16 1.00000000
vn 6.1861444e-17 -1.3198451e-16 1.00000000
vn 0.46404894 0.57450742 0.67424017
vn -0.26551355 -0.68913188 0.67424017
vn -5.8581873e-18 -1.1809896e-16 1.00000000
vn 1.6232520e-16 -1.0092178e-16 1.00000000
vn -6.1861444e-17 -1.3198451e-16 1.00000000
vn 0.0000000e+0 0.0000000e+0 1.00000000
vn -0.72956249 0.11462447 0.67424017
vn 0.72956249 0.11462447 0.67424017
vn 0.0000000e+0 -1.1038821e-16 1.00000000
vn 0.0000000e+0 0.0000000e+0 1.00000000
vn 0.0000000e+0 -7.4986355e-17 1.00000000
vn -3.7768309e-16 -6.2813293e-17 1.00000000
vn 3.7768309e-16 -6.2813293e-17 1.00000000
vn -3.9854070e-17 -4.6866472e-17 1.00000000
vn -4.9303807e-32 -9.3348978e-17 1.00000000
vn 3.9854070e-17 -4.6866472e-17 1.00000000
vn 0.0000000e+0 0.0000000e+0 1.00000000
g tetrahedron1_tetrahedron1_auv
usemtl tetrahedron1_auv
s 1
f 1/55/1 9/18/9 6/19/6
f 1/52/1 14/68/14 2/70/2
f 1/56/1 16/50/16 3/40/3
f 1/55/1 18/13/18 4/12/4
f 1/55/1 25/15/25 18/13/18
f 1/55/1 32/16/32 9/18/9
f 2/11/2 15/14/15 1/55/1
f 2/33/2 33/32/33 15/34/15
f 3/69/3 17/67/17 1/52/1
f 3/1/3 23/3/23 17/2/17
f 4/61/4 19/60/19 1/56/1
f 4/54/4 28/48/28 19/47/19
f 5/62/5 1/52/1 11/63/11
f 5/62/5 8/64/8 1/52/1
f 5/20/5 40/21/40 35/29/35
f 6/39/6 36/37/36 27/42/27 12/44/12
f 6/39/6 38/38/38 36/37/36
f 7/57/7 1/56/1 13/58/13
f 7/57/7 10/53/10 1/56/1
f 7/26/7 39/27/39 37/22/37
f 8/64/8 31/66/31 1/52/1
f 9/35/9 30/30/30 35/29/35 6/39/6
f 9/35/9 32/36/32 34/31/34 30/30/30
f 10/53/10 22/51/22 1/56/1
f 11/63/11 1/52/1 20/65/20
f 11/7/11 21/9/21 37/22/37 5/20/5
f 12/17/12 1/55/1 6/19/6
f 12/44/12 27/42/27 29/45/29 25/46/25
f 13/58/13 1/56/1 26/59/26
f 13/41/13 27/42/27 36/37/36 7/26/7
f 14/68/14 1/52/1 31/66/31
f 14/25/14 33/32/33 2/33/2
f 15/34/15 33/32/33 34/31/34 32/36/32
f 16/50/16 1/56/1 22/51/22
f 16/4/16 23/3/23 3/1/3
f 17/67/17 20/65/20 1/52/1
f 17/2/17 23/3/23 24/6/24 20/5/20
f 18/49/18 25/46/25 29/45/29 28/48/28
f 18/49/18 28/48/28 4/54/4
f 19/60/19 26/59/26 1/56/1
f 19/47/19 28/48/28 29/45/29 26/43/26
f 20/5/20 24/6/24 21/9/21 11/7/11
f 21/9/21 24/6/24 22/8/22 10/10/10
f 22/8/22 24/6/24 23/3/23 16/4/16
f 25/15/25 1/55/1 12/17/12
f 26/43/26 29/45/29 27/42/27 13/41/13
f 30/30/30 34/31/34 31/23/31 8/24/8
f 31/23/31 34/31/34 33/32/33 14/25/14
f 32/16/32 1/55/1 15/14/15
f 35/29/35 30/30/30 8/24/8 5/20/5
f 35/29/35 38/38/38 6/39/6
f 35/29/35 40/21/40 41/28/41 38/38/38
f 36/37/36 38/38/38 41/28/41 39/27/39
f 36/37/36 39/27/39 7/26/7
f 37/22/37 21/9/21 10/10/10 7/26/7
f 37/22/37 39/27/39 41/28/41 40/21/40
f 37/22/37 40/21/40 5/20/5
