# Exported from Wings 3D 1.5.3
mtllib stone.mtl
o F2:GeoDome1
#18 vertices, 32 faces
v -1.00000000 0.0000000e+0 0.0000000e+0
v -0.70710678 -0.70710678 0.0000000e+0
v -0.70710678 0.0000000e+0 -0.70710678
v -0.70710678 0.0000000e+0 0.70710678
v -0.70710678 0.70710678 0.0000000e+0
v 0.0000000e+0 -1.00000000 0.0000000e+0
v 0.0000000e+0 -0.70710678 -0.70710678
v 0.0000000e+0 -0.70710678 0.70710678
v 0.0000000e+0 0.0000000e+0 -1.00000000
v 0.0000000e+0 0.0000000e+0 1.00000000
v 0.0000000e+0 0.70710678 -0.70710678
v 0.0000000e+0 0.70710678 0.70710678
v 0.0000000e+0 1.00000000 0.0000000e+0
v 0.70710678 -0.70710678 0.0000000e+0
v 0.70710678 0.0000000e+0 -0.70710678
v 0.70710678 0.0000000e+0 0.70710678
v 0.70710678 0.70710678 0.0000000e+0
v 1.00000000 0.0000000e+0 0.0000000e+0
vn -1.00000000 0.0000000e+0 0.0000000e+0
vn -0.70710678 -0.70710678 4.3671587e-17
vn -0.70710678 -4.3671587e-17 -0.70710678
vn -0.70710678 -4.3671587e-17 0.70710678
vn -0.70710678 0.70710678 4.3671587e-17
vn 0.0000000e+0 -1.00000000 0.0000000e+0
vn -4.3671587e-17 -0.70710678 -0.70710678
vn -4.3671587e-17 -0.70710678 0.70710678
vn 0.0000000e+0 0.0000000e+0 -1.00000000
vn 0.0000000e+0 0.0000000e+0 1.00000000
vn -4.3671587e-17 0.70710678 -0.70710678
vn -4.3671587e-17 0.70710678 0.70710678
vn 0.0000000e+0 1.00000000 0.0000000e+0
vn 0.70710678 -0.70710678 -4.3671587e-17
vn 0.70710678 -4.3671587e-17 -0.70710678
vn 0.70710678 -4.3671587e-17 0.70710678
vn 0.70710678 0.70710678 -4.3671587e-17
vn 1.00000000 0.0000000e+0 0.0000000e+0
g F2:GeoDome1_default
usemtl default
s 1
f 1//1 3//3 2//2
f 1//1 5//5 3//3
f 2//2 4//4 1//1
f 2//2 7//7 6//6
f 2//2 8//8 4//4
f 3//3 7//7 2//2
f 3//3 9//9 7//7
f 3//3 11//11 9//9
f 4//4 5//5 1//1
f 4//4 12//12 5//5
f 5//5 11//11 3//3
f 5//5 13//13 11//11
f 6//6 8//8 2//2
f 6//6 14//14 8//8
f 7//7 14//14 6//6
f 7//7 15//15 14//14
f 8//8 10//10 4//4
f 8//8 16//16 10//10
f 9//9 15//15 7//7
f 10//10 12//12 4//4
f 10//10 16//16 12//12
f 11//11 15//15 9//9
f 11//11 17//17 15//15
f 12//12 13//13 5//5
f 12//12 17//17 13//13
f 13//13 17//17 11//11
f 14//14 16//16 8//8
f 14//14 18//18 16//16
f 15//15 18//18 14//14
f 16//16 17//17 12//12
f 16//16 18//18 17//17
f 17//17 18//18 15//15
